<svg width="24" height="24" viewBox="0 0 24 24" fill="none" xmlns="http://www.w3.org/2000/svg">
<path d="M11.0039 20.9996C11.0039 20.1711 10.3323 19.4996 9.50391 19.4996C8.67549 19.4996 8.00391 20.1711 8.00391 20.9996H3.00391C2.45163 20.9996 2.00391 20.5518 2.00391 19.9996V3.99951C2.00391 3.44723 2.45163 2.99951 3.00391 2.99951H8.00391C8.00391 3.82794 8.67549 4.49951 9.50391 4.49951C10.3323 4.49951 11.0039 3.82794 11.0039 2.99951H21.0039C21.5562 2.99951 22.0039 3.44723 22.0039 3.99951V9.49951C20.6232 9.49951 19.5039 10.6189 19.5039 11.9996C19.5039 13.3803 20.6232 14.4996 22.0039 14.4996V19.9996C22.0039 20.5518 21.5562 20.9996 21.0039 20.9996H11.0039ZM9.50391 10.4996C10.3323 10.4996 11.0039 9.82794 11.0039 8.99951C11.0039 8.17109 10.3323 7.49951 9.50391 7.49951C8.67549 7.49951 8.00391 8.17109 8.00391 8.99951C8.00391 9.82794 8.67549 10.4996 9.50391 10.4996ZM9.50391 16.4996C10.3323 16.4996 11.0039 15.828 11.0039 14.9996C11.0039 14.1711 10.3323 13.4996 9.50391 13.4996C8.67549 13.4996 8.00391 14.1711 8.00391 14.9996C8.00391 15.828 8.67549 16.4996 9.50391 16.4996Z" fill="#C61F1F"/>
</svg>
