<?xml version="1.0" encoding="UTF-8"?>
<svg version="1.1" xmlns="http://www.w3.org/2000/svg" width="250" height="250">
<path d="M0 0 C0.74223816 0.00304138 1.48447632 0.00608276 2.24920654 0.00921631 C13.94944381 0.07994395 25.04739853 0.85942068 36.25 4.4375 C36.93610352 4.65180664 37.62220703 4.86611328 38.32910156 5.08691406 C58.04987931 11.43266315 74.19618239 22.28162941 89.25 36.4375 C89.84039062 36.9634375 90.43078125 37.489375 91.0390625 38.03125 C104.31673202 50.36500936 113.84777506 67.55821967 119.625 84.5625 C119.8516333 85.22934814 120.0782666 85.89619629 120.31176758 86.58325195 C124.37204752 99.40237573 125.80410905 111.84120061 125.6875 125.1875 C125.68293793 126.30085724 125.68293793 126.30085724 125.67828369 127.43670654 C125.60755605 139.13694381 124.82807932 150.23489853 121.25 161.4375 C121.03569336 162.12360352 120.82138672 162.80970703 120.60058594 163.51660156 C114.25483685 183.23737931 103.40587059 199.38368239 89.25 214.4375 C88.7240625 215.02789062 88.198125 215.61828125 87.65625 216.2265625 C75.32249064 229.50423202 58.12928033 239.03527506 41.125 244.8125 C40.45815186 245.0391333 39.79130371 245.2657666 39.10424805 245.49926758 C26.28512427 249.55954752 13.84629939 250.99160905 0.5 250.875 C-0.24223816 250.87195862 -0.98447632 250.86891724 -1.74920654 250.86578369 C-13.44944381 250.79505605 -24.54739853 250.01557932 -35.75 246.4375 C-36.43610352 246.22319336 -37.12220703 246.00888672 -37.82910156 245.78808594 C-57.54987931 239.44233685 -73.69618239 228.59337059 -88.75 214.4375 C-89.63558594 213.64859375 -89.63558594 213.64859375 -90.5390625 212.84375 C-103.81673202 200.50999064 -113.34777506 183.31678033 -119.125 166.3125 C-119.3516333 165.64565186 -119.5782666 164.97880371 -119.81176758 164.29174805 C-123.87204752 151.47262427 -125.30410905 139.03379939 -125.1875 125.6875 C-125.18445862 124.94526184 -125.18141724 124.20302368 -125.17828369 123.43829346 C-125.10755605 111.73805619 -124.32807932 100.64010147 -120.75 89.4375 C-120.53569336 88.75139648 -120.32138672 88.06529297 -120.10058594 87.35839844 C-113.75483685 67.63762069 -102.90587059 51.49131761 -88.75 36.4375 C-88.2240625 35.84710938 -87.698125 35.25671875 -87.15625 34.6484375 C-74.82249064 21.37076798 -57.62928033 11.83972494 -40.625 6.0625 C-39.95815186 5.8358667 -39.29130371 5.6092334 -38.60424805 5.37573242 C-25.78512427 1.31545248 -13.34629939 -0.11660905 0 0 Z " fill="#0139A5" transform="translate(124.75,-0.4375)"/>
<path d="M0 0 C77.88 0 155.76 0 236 0 C235.05461588 4.72692061 233.53417469 8.39458535 231.375 12.625 C231.015271 13.33358154 230.65554199 14.04216309 230.28491211 14.7722168 C215.17024372 44.1198923 190.22404839 66.72412266 158.875 77.375 C158.20815186 77.6016333 157.54130371 77.8282666 156.85424805 78.06176758 C144.03512427 82.12204752 131.59629939 83.55410905 118.25 83.4375 C117.50776184 83.43445862 116.76552368 83.43141724 116.00079346 83.42828369 C104.30055619 83.35755605 93.20260147 82.57807932 82 79 C81.31389648 78.78569336 80.62779297 78.57138672 79.92089844 78.35058594 C60.20012069 72.00483685 44.05381761 61.15587059 29 47 C28.40960938 46.4740625 27.81921875 45.948125 27.2109375 45.40625 C15.32998591 34.36991582 5.26004645 18.31681919 0 3 C0 2.01 0 1.02 0 0 Z " fill="#D52A1D" transform="translate(7,167)"/>
<path d="M0 0 C0.74223816 0.00304138 1.48447632 0.00608276 2.24920654 0.00921631 C13.94944381 0.07994395 25.04739853 0.85942068 36.25 4.4375 C36.93610352 4.65180664 37.62220703 4.86611328 38.32910156 5.08691406 C58.04987931 11.43266315 74.19618239 22.28162941 89.25 36.4375 C89.84039062 36.9634375 90.43078125 37.489375 91.0390625 38.03125 C102.92001409 49.06758418 112.98995355 65.12068081 118.25 80.4375 C118.25 81.4275 118.25 82.4175 118.25 83.4375 C40.37 83.4375 -37.51 83.4375 -117.75 83.4375 C-116.80461588 78.71057939 -115.28417469 75.04291465 -113.125 70.8125 C-112.765271 70.10391846 -112.40554199 69.39533691 -112.03491211 68.6652832 C-96.92024372 39.3176077 -71.97404839 16.71337734 -40.625 6.0625 C-39.95815186 5.8358667 -39.29130371 5.6092334 -38.60424805 5.37573242 C-25.78512427 1.31545248 -13.34629939 -0.11660905 0 0 Z " fill="#FFFFFF" transform="translate(124.75,-0.4375)"/>
</svg>
