<?xml version="1.0" encoding="UTF-8"?>
<svg version="1.1" xmlns="http://www.w3.org/2000/svg" width="250" height="250">
<path d="M0 0 C18.59004414 15.35267255 32.69646285 34.52711266 40.48950195 57.46459961 C40.71613525 58.13144775 40.94276855 58.7982959 41.17626953 59.48535156 C45.23654947 72.30447534 46.668611 84.74330022 46.55200195 98.08959961 C46.54743988 99.20295685 46.54743988 99.20295685 46.54278564 100.33880615 C46.47205801 112.03904342 45.69258127 123.13699814 42.11450195 134.33959961 C41.90019531 135.02570313 41.68588867 135.71180664 41.46508789 136.41870117 C35.1193388 156.13947892 24.27037255 172.285782 10.11450195 187.33959961 C9.58856445 187.92999023 9.06262695 188.52038086 8.52075195 189.12866211 C-5.02314531 203.70908213 -24.10328341 213.47291444 -42.88549805 219.33959961 C-43.87984863 219.65719238 -43.87984863 219.65719238 -44.89428711 219.98120117 C-66.10524241 226.41896587 -93.81174458 226.07049705 -114.88549805 219.33959961 C-115.57160156 219.12529297 -116.25770508 218.91098633 -116.96459961 218.69018555 C-136.68537735 212.34443646 -152.83168044 201.4954702 -167.88549805 187.33959961 C-168.77108398 186.55069336 -168.77108398 186.55069336 -169.67456055 185.74584961 C-182.95223006 173.41209025 -192.48327311 156.21887994 -198.26049805 139.21459961 C-198.48713135 138.54775146 -198.71376465 137.88090332 -198.94726562 137.19384766 C-203.00754557 124.37472388 -204.4396071 111.935899 -204.32299805 98.58959961 C-204.31995667 97.84736145 -204.31691528 97.10512329 -204.31378174 96.34039307 C-204.2430541 84.6401558 -203.46357737 73.54220108 -199.88549805 62.33959961 C-199.67119141 61.65349609 -199.45688477 60.96739258 -199.23608398 60.26049805 C-192.89033489 40.5397203 -182.04136864 24.39341722 -167.88549805 9.33959961 C-167.35956055 8.74920898 -166.83362305 8.15881836 -166.29174805 7.55053711 C-152.74785078 -7.02988291 -133.66771268 -16.79371522 -114.88549805 -22.66040039 C-114.22259766 -22.87212891 -113.55969727 -23.08385742 -112.87670898 -23.30200195 C-74.73279954 -34.87910963 -30.6639187 -24.56600448 0 0 Z " fill="#3F3D6F" transform="translate(203.885498046875,26.660400390625)"/>
<path d="M0 0 C82.5 0 165 0 250 0 C248.82623058 15.25900245 248.82623058 15.25900245 246.875 22.3125 C246.65618164 23.1159082 246.43736328 23.91931641 246.21191406 24.74707031 C240.67375483 44.21896166 230.65241883 61.15566392 217 76 C215.81470703 77.30904297 215.81470703 77.30904297 214.60546875 78.64453125 C199.96868258 94.05806229 181.18263435 104.69588922 161 111 C160.00564941 111.31759277 160.00564941 111.31759277 158.99121094 111.64160156 C137.78025563 118.07936626 110.07375347 117.73089744 89 111 C88.31389648 110.78569336 87.62779297 110.57138672 86.92089844 110.35058594 C67.20012069 104.00483685 51.05381761 93.15587059 36 79 C35.11441406 78.21109375 35.11441406 78.21109375 34.2109375 77.40625 C15.0226752 59.58208217 3.42601761 32.63502651 0 7 C0 4.69 0 2.38 0 0 Z " fill="#FEFCFC" transform="translate(0,135)"/>
<path d="M0 0 C82.5 0 165 0 250 0 C249 13 249 13 247 19 C166.48 19 85.96 19 3 19 C1 13 1 13 0 0 Z " fill="#FEFCFC" transform="translate(0,135)"/>
<path d="M0 0 C80.52 0 161.04 0 244 0 C242 10 242 10 238 19 C161.44 19 84.88 19 6 19 C2 10 2 10 0 0 Z " fill="#B22234" transform="translate(3,154)"/>
<path d="M0 0 C76.56 0 153.12 0 232 0 C230 6 230 6 223 19 C152.38 19 81.76 19 9 19 C0 2 0 2 0 0 Z " fill="#FEFDFD" transform="translate(9,173)"/>
<path d="M0 0 C69.96 0 139.92 0 212 0 C209.21266949 4.87782839 206.88746485 8.61281377 203.375 12.8125 C202.59898437 13.74707031 201.82296875 14.68164062 201.0234375 15.64453125 C197.30539159 19.97268122 197.30539159 19.97268122 193.9366827 20.27402878 C192.59479047 20.29556383 191.25269292 20.30588121 189.91062927 20.30780029 C189.17206399 20.3165648 188.4334987 20.32532931 187.67255265 20.33435941 C185.18460509 20.36118105 182.69679929 20.37350304 180.20874023 20.38574219 C178.42996069 20.40154101 176.65118758 20.41807871 174.87242126 20.43530273 C169.01787459 20.48779523 163.16329897 20.51836967 157.30859375 20.546875 C155.29358463 20.55759349 153.2785757 20.5683485 151.26356697 20.57913971 C142.87989883 20.62241081 134.49623845 20.65988174 126.11248684 20.68238449 C114.09770125 20.7148442 102.08421136 20.78113263 90.06991428 20.89518619 C81.62309394 20.97263633 73.17661969 21.01165604 64.72945362 21.02222562 C59.68441319 21.02952806 54.64075375 21.05351147 49.59609795 21.11843109 C44.84557639 21.17868604 40.09726749 21.19118824 35.34644508 21.16766357 C33.60696528 21.16722278 31.8673816 21.18377999 30.12825775 21.21897125 C17.04792401 21.46914915 17.04792401 21.46914915 12.03569221 17.87345123 C9.72053723 15.35647533 7.84448017 12.87461783 6 10 C5.36732429 9.10238323 4.73464857 8.20476646 4.08280087 7.27994919 C0 1.46718037 0 1.46718037 0 0 Z " fill="#B4293A" transform="translate(19,192)"/>
<path d="M0 0 C44.22 0 88.44 0 134 0 C129.67799866 3.45760107 126.14878471 5.64930361 121.25 7.9375 C120.50991699 8.28377441 119.76983398 8.63004883 119.00732422 8.98681641 C111.26221381 12.49869646 103.2785848 15.07331356 95 17 C94.21657227 17.18546387 93.43314453 17.37092773 92.62597656 17.56201172 C84.28801138 19.3156438 75.97932781 19.3980347 67.5 19.375 C66.74777161 19.37445618 65.99554321 19.37391235 65.22052002 19.37335205 C53.43132761 19.33418113 42.29018899 18.60605453 31 15 C30.31389648 14.78569336 29.62779297 14.57138672 28.92089844 14.35058594 C18.68099487 11.05559121 9.34001579 6.28730779 0 1 C0 0.67 0 0.34 0 0 Z " fill="#B12133" transform="translate(58,231)"/>
<path d="M0 0 C18.81 0 37.62 0 57 0 C59 6 59 6 60 19 C40.2 19 20.4 19 0 19 C0 12.73 0 6.46 0 0 Z " fill="#FEFCFC" transform="translate(190,96)"/>
<path d="M0 0 C19.8 0 39.6 0 60 0 C60 5.94 60 11.88 60 18 C40.2 18 20.4 18 0 18 C0 12.06 0 6.12 0 0 Z " fill="#B12032" transform="translate(190,116)"/>
<path d="M0 0 C16.83 0 33.66 0 51 0 C55 9 55 9 57 19 C38.19 19 19.38 19 0 19 C0 12.73 0 6.46 0 0 Z " fill="#B12234" transform="translate(190,77)"/>
<path d="M0 0 C13.86 0 27.72 0 42 0 C51 17 51 17 51 19 C34.17 19 17.34 19 0 19 C0 12.73 0 6.46 0 0 Z " fill="#FEFCFD" transform="translate(190,58)"/>
<path d="M0 0 C24.59708769 -1.60999119 24.59708769 -1.60999119 29.51953125 1.91015625 C31.79830279 4.49223188 33.39511449 6.9587209 35 10 C36.17858204 11.6937405 37.36544754 13.38176269 38.5625 15.0625 C41 18.82113821 41 18.82113821 41 20 C27.47 20 13.94 20 0 20 C0 13.4 0 6.8 0 0 Z " fill="#B4283A" transform="translate(190,38)"/>
<path d="M0 0 C5.63245573 1.12649115 5.63245573 1.12649115 8.33984375 3.2578125 C8.92830078 3.71929688 9.51675781 4.18078125 10.12304688 4.65625 C10.72181641 5.1409375 11.32058594 5.625625 11.9375 6.125 C12.53240234 6.58648438 13.12730469 7.04796875 13.74023438 7.5234375 C18.20146428 11.07291878 21.10661557 14.45771817 25 19 C16.75 19 8.5 19 0 19 C0 12.73 0 6.46 0 0 Z " fill="#FDFDFD" transform="translate(190,19)"/>
<path d="M0 0 C0.66 1.32 1.32 2.64 2 4 C3.65 4 5.3 4 7 4 C7 4.66 7 5.32 7 6 C6.01 6.495 6.01 6.495 5 7 C5 8.98 5 10.96 5 13 C4.2575 12.62875 3.515 12.2575 2.75 11.875 C0.05716353 10.70484137 0.05716353 10.70484137 -2.3125 11.875 C-3.1478125 12.431875 -3.1478125 12.431875 -4 13 C-4 11.02 -4 9.04 -4 7 C-4.66 6.67 -5.32 6.34 -6 6 C-6 5.34 -6 4.68 -6 4 C-4.35 4 -2.7 4 -1 4 C-0.67 2.68 -0.34 1.36 0 0 Z " fill="#E1E1E9" transform="translate(174,87)"/>
<path d="M0 0 C0.66 1.32 1.32 2.64 2 4 C3.65 4 5.3 4 7 4 C7 4.66 7 5.32 7 6 C6.01 6.495 6.01 6.495 5 7 C5 8.98 5 10.96 5 13 C4.2575 12.62875 3.515 12.2575 2.75 11.875 C0.05716353 10.70484137 0.05716353 10.70484137 -2.3125 11.875 C-3.1478125 12.431875 -3.1478125 12.431875 -4 13 C-4 11.02 -4 9.04 -4 7 C-4.66 6.67 -5.32 6.34 -6 6 C-6 5.34 -6 4.68 -6 4 C-4.35 4 -2.7 4 -1 4 C-0.67 2.68 -0.34 1.36 0 0 Z " fill="#E1E1E9" transform="translate(111,87)"/>
<path d="M0 0 C0.66 1.32 1.32 2.64 2 4 C3.65 4 5.3 4 7 4 C7 4.66 7 5.32 7 6 C6.01 6.495 6.01 6.495 5 7 C5 8.98 5 10.96 5 13 C4.2575 12.62875 3.515 12.2575 2.75 11.875 C0.05716353 10.70484137 0.05716353 10.70484137 -2.3125 11.875 C-3.1478125 12.431875 -3.1478125 12.431875 -4 13 C-4 11.02 -4 9.04 -4 7 C-4.66 6.67 -5.32 6.34 -6 6 C-6 5.34 -6 4.68 -6 4 C-4.35 4 -2.7 4 -1 4 C-0.67 2.68 -0.34 1.36 0 0 Z " fill="#E1E1E9" transform="translate(48,87)"/>
<path d="M0 0 C0.66 1.32 1.32 2.64 2 4 C3.65 4 5.3 4 7 4 C7 4.66 7 5.32 7 6 C6.01 6.495 6.01 6.495 5 7 C5 8.98 5 10.96 5 13 C4.01 12.34 3.02 11.68 2 11 C-0.28397032 11.34605611 -1.93409037 11.96704519 -4 13 C-4 11.02 -4 9.04 -4 7 C-4.66 6.67 -5.32 6.34 -6 6 C-6 5.34 -6 4.68 -6 4 C-4.35 4 -2.7 4 -1 4 C-0.67 2.68 -0.34 1.36 0 0 Z " fill="#E1E0E8" transform="translate(32,47)"/>
<path d="M0 0 C0.66 1.32 1.32 2.64 2 4 C3.65 4 5.3 4 7 4 C7 4.66 7 5.32 7 6 C6.01 6.495 6.01 6.495 5 7 C5 8.98 5 10.96 5 13 C4.01 12.34 3.02 11.68 2 11 C-0.28397032 11.34605611 -1.93409037 11.96704519 -4 13 C-4 11.02 -4 9.04 -4 7 C-4.66 6.67 -5.32 6.34 -6 6 C-6 5.34 -6 4.68 -6 4 C-4.35 4 -2.7 4 -1 4 C-0.67 2.68 -0.34 1.36 0 0 Z " fill="#E2E2E9" transform="translate(126,20)"/>
<path d="M0 0 C0.66 1.32 1.32 2.64 2 4 C3.65 4 5.3 4 7 4 C7 4.66 7 5.32 7 6 C6.01 6.495 6.01 6.495 5 7 C5 8.98 5 10.96 5 13 C4.01 12.34 3.02 11.68 2 11 C-0.28397032 11.34605611 -1.93409037 11.96704519 -4 13 C-4 11.02 -4 9.04 -4 7 C-4.66 6.67 -5.32 6.34 -6 6 C-6 5.34 -6 4.68 -6 4 C-4.35 4 -2.7 4 -1 4 C-0.67 2.68 -0.34 1.36 0 0 Z " fill="#E2E2E9" transform="translate(63,20)"/>
<path d="M0 0 C0.66 0 1.32 0 2 0 C2.33 0.99 2.66 1.98 3 3 C4.65 3.33 6.3 3.66 8 4 C7.01 5.485 7.01 5.485 6 7 C5.34 7 4.68 7 4 7 C4.33 8.65 4.66 10.3 5 12 C4.236875 11.814375 3.47375 11.62875 2.6875 11.4375 C-0.08967375 10.77180827 -0.08967375 10.77180827 -3 12 C-2.67 10.35 -2.34 8.7 -2 7 C-3.32 6.34 -4.64 5.68 -6 5 C-6 4.67 -6 4.34 -6 4 C-4.02 4 -2.04 4 0 4 C0 2.68 0 1.36 0 0 Z " fill="#E3E3EA" transform="translate(142,87)"/>
<path d="M0 0 C0.66 0 1.32 0 2 0 C2.33 0.99 2.66 1.98 3 3 C4.65 3.33 6.3 3.66 8 4 C7.01 5.485 7.01 5.485 6 7 C5.34 7 4.68 7 4 7 C4.33 8.65 4.66 10.3 5 12 C4.236875 11.814375 3.47375 11.62875 2.6875 11.4375 C-0.08967375 10.77180827 -0.08967375 10.77180827 -3 12 C-2.67 10.35 -2.34 8.7 -2 7 C-3.32 6.34 -4.64 5.68 -6 5 C-6 4.67 -6 4.34 -6 4 C-4.02 4 -2.04 4 0 4 C0 2.68 0 1.36 0 0 Z " fill="#E3E3EA" transform="translate(79,87)"/>
<path d="M0 0 C0.66 0 1.32 0 2 0 C2.33 0.99 2.66 1.98 3 3 C4.65 3.33 6.3 3.66 8 4 C7.01 5.485 7.01 5.485 6 7 C5.34 7 4.68 7 4 7 C4.33 8.65 4.66 10.3 5 12 C4.236875 11.814375 3.47375 11.62875 2.6875 11.4375 C-0.08967375 10.77180827 -0.08967375 10.77180827 -3 12 C-2.67 10.35 -2.34 8.7 -2 7 C-3.32 6.34 -4.64 5.68 -6 5 C-6 4.67 -6 4.34 -6 4 C-4.02 4 -2.04 4 0 4 C0 2.68 0 1.36 0 0 Z " fill="#E3E3EA" transform="translate(16,87)"/>
<path d="M0 0 C2 2 2 2 2 5 C3.65 5 5.3 5 7 5 C6.67 5.66 6.34 6.32 6 7 C5.34 7 4.68 7 4 7 C4.33 8.98 4.66 10.96 5 13 C3.6078125 12.7215625 3.6078125 12.7215625 2.1875 12.4375 C-1.01343771 11.75876119 -1.01343771 11.75876119 -4 13 C-3.67 11.02 -3.34 9.04 -3 7 C-3.99 6.67 -4.98 6.34 -6 6 C-6 5.67 -6 5.34 -6 5 C-4.35 5 -2.7 5 -1 5 C-0.67 3.35 -0.34 1.7 0 0 Z " fill="#E5E5EC" transform="translate(32,73)"/>
<path d="M0 0 C0.66 1.32 1.32 2.64 2 4 C3.65 4 5.3 4 7 4 C7 4.66 7 5.32 7 6 C5.68 6.33 4.36 6.66 3 7 C3.66 8.98 4.32 10.96 5 13 C4.01 12.34 3.02 11.68 2 11 C-0.28397032 11.34605611 -1.93409037 11.96704519 -4 13 C-4 11.02 -4 9.04 -4 7 C-4.66 6.67 -5.32 6.34 -6 6 C-6 5.34 -6 4.68 -6 4 C-4.35 4 -2.7 4 -1 4 C-0.67 2.68 -0.34 1.36 0 0 Z " fill="#E2E2E9" transform="translate(158,47)"/>
<path d="M0 0 C0.66 1.32 1.32 2.64 2 4 C3.65 4 5.3 4 7 4 C7 4.66 7 5.32 7 6 C5.68 6.33 4.36 6.66 3 7 C3.66 8.98 4.32 10.96 5 13 C4.01 12.34 3.02 11.68 2 11 C-0.28397032 11.34605611 -1.93409037 11.96704519 -4 13 C-4 11.02 -4 9.04 -4 7 C-4.66 6.67 -5.32 6.34 -6 6 C-6 5.34 -6 4.68 -6 4 C-4.35 4 -2.7 4 -1 4 C-0.67 2.68 -0.34 1.36 0 0 Z " fill="#E2E2E9" transform="translate(95,47)"/>
<path d="M0 0 C0.66 0 1.32 0 2 0 C2 1.32 2 2.64 2 4 C3.98 4 5.96 4 8 4 C7.505 4.391875 7.01 4.78375 6.5 5.1875 C4.54406857 7.55091715 4.75792027 9.01435003 5 12 C4.236875 11.814375 3.47375 11.62875 2.6875 11.4375 C-0.08967375 10.77180827 -0.08967375 10.77180827 -3 12 C-2.67 10.35 -2.34 8.7 -2 7 C-3.32 6.67 -4.64 6.34 -6 6 C-6 5.34 -6 4.68 -6 4 C-4.35 3.67 -2.7 3.34 -1 3 C-0.67 2.01 -0.34 1.02 0 0 Z " fill="#E2E2E9" transform="translate(126,47)"/>
<path d="M0 0 C0.66 0 1.32 0 2 0 C2 1.32 2 2.64 2 4 C3.98 4 5.96 4 8 4 C7.505 4.391875 7.01 4.78375 6.5 5.1875 C4.54406857 7.55091715 4.75792027 9.01435003 5 12 C4.236875 11.814375 3.47375 11.62875 2.6875 11.4375 C-0.08967375 10.77180827 -0.08967375 10.77180827 -3 12 C-2.67 10.35 -2.34 8.7 -2 7 C-3.32 6.67 -4.64 6.34 -6 6 C-6 5.34 -6 4.68 -6 4 C-4.35 3.67 -2.7 3.34 -1 3 C-0.67 2.01 -0.34 1.02 0 0 Z " fill="#E2E2E9" transform="translate(63,47)"/>
<path d="M0 0 C0.66 0 1.32 0 2 0 C2 1.32 2 2.64 2 4 C3.98 4 5.96 4 8 4 C7.01 5.485 7.01 5.485 6 7 C5.34 7 4.68 7 4 7 C4.33 8.65 4.66 10.3 5 12 C4.236875 11.814375 3.47375 11.62875 2.6875 11.4375 C-0.08967375 10.77180827 -0.08967375 10.77180827 -3 12 C-2.67 10.35 -2.34 8.7 -2 7 C-3.32 6.34 -4.64 5.68 -6 5 C-6 4.67 -6 4.34 -6 4 C-4.35 3.67 -2.7 3.34 -1 3 C-0.67 2.01 -0.34 1.02 0 0 Z " fill="#E3E3EA" transform="translate(157,20)"/>
<path d="M0 0 C0.66 0 1.32 0 2 0 C2 1.32 2 2.64 2 4 C3.98 4 5.96 4 8 4 C7.01 5.485 7.01 5.485 6 7 C5.34 7 4.68 7 4 7 C4.33 8.65 4.66 10.3 5 12 C4.236875 11.814375 3.47375 11.62875 2.6875 11.4375 C-0.08967375 10.77180827 -0.08967375 10.77180827 -3 12 C-2.67 10.35 -2.34 8.7 -2 7 C-3.32 6.34 -4.64 5.68 -6 5 C-6 4.67 -6 4.34 -6 4 C-4.35 3.67 -2.7 3.34 -1 3 C-0.67 2.01 -0.34 1.02 0 0 Z " fill="#E3E3EA" transform="translate(94,20)"/>
<path d="M0 0 C0 0.66 0 1.32 0 2 C1.65 2 3.3 2 5 2 C4.484375 2.391875 3.96875 2.78375 3.4375 3.1875 C2.7259375 4.0846875 2.7259375 4.0846875 2 5 C2.23043864 7.65466049 2.23043864 7.65466049 3 10 C1.6078125 9.7215625 1.6078125 9.7215625 0.1875 9.4375 C-3.01343771 8.75876119 -3.01343771 8.75876119 -6 10 C-5.95875 9.2575 -5.9175 8.515 -5.875 7.75 C-6.00398134 4.91241048 -6.57051222 3.41226062 -8 1 C-3.375 -1.125 -3.375 -1.125 0 0 Z " fill="#E1E1E9" transform="translate(81,9)"/>
<path d="M0 0 C2 2 2 2 2 5 C3.65 5 5.3 5 7 5 C6.67 5.66 6.34 6.32 6 7 C5.34 7 4.68 7 4 7 C4.33 8.98 4.66 10.96 5 13 C3.6078125 12.7215625 3.6078125 12.7215625 2.1875 12.4375 C-1.01343771 11.75876119 -1.01343771 11.75876119 -4 13 C-3.67 11.02 -3.34 9.04 -3 7 C-3.99 6.67 -4.98 6.34 -6 6 C-6 5.67 -6 5.34 -6 5 C-4.35 5 -2.7 5 -1 5 C-0.67 3.35 -0.34 1.7 0 0 Z " fill="#E6E6ED" transform="translate(158,73)"/>
<path d="M0 0 C2 2 2 2 2 5 C3.65 5 5.3 5 7 5 C6.67 5.66 6.34 6.32 6 7 C5.34 7 4.68 7 4 7 C4.33 8.98 4.66 10.96 5 13 C3.6078125 12.7215625 3.6078125 12.7215625 2.1875 12.4375 C-1.01343771 11.75876119 -1.01343771 11.75876119 -4 13 C-3.67 11.02 -3.34 9.04 -3 7 C-3.99 6.67 -4.98 6.34 -6 6 C-6 5.67 -6 5.34 -6 5 C-4.35 5 -2.7 5 -1 5 C-0.67 3.35 -0.34 1.7 0 0 Z " fill="#E6E6ED" transform="translate(95,73)"/>
<path d="M0 0 C0.66 0.99 1.32 1.98 2 3 C4.56282742 3.72965366 4.56282742 3.72965366 7 4 C6.01 5.485 6.01 5.485 5 7 C4.34 7 3.68 7 3 7 C3.33 8.65 3.66 10.3 4 12 C3.236875 11.814375 2.47375 11.62875 1.6875 11.4375 C-1.08967375 10.77180827 -1.08967375 10.77180827 -4 12 C-3.938125 11.236875 -3.87625 10.47375 -3.8125 9.6875 C-3.74101915 6.95474688 -3.74101915 6.95474688 -5.5 5.1875 C-5.995 4.795625 -6.49 4.40375 -7 4 C-5.02 4 -3.04 4 -1 4 C-0.67 2.68 -0.34 1.36 0 0 Z " fill="#E7E7ED" transform="translate(174,114)"/>
<path d="M0 0 C0.66 0.99 1.32 1.98 2 3 C4.56282742 3.72965366 4.56282742 3.72965366 7 4 C6.01 5.485 6.01 5.485 5 7 C4.34 7 3.68 7 3 7 C3.33 8.65 3.66 10.3 4 12 C3.236875 11.814375 2.47375 11.62875 1.6875 11.4375 C-1.08967375 10.77180827 -1.08967375 10.77180827 -4 12 C-3.938125 11.236875 -3.87625 10.47375 -3.8125 9.6875 C-3.74101915 6.95474688 -3.74101915 6.95474688 -5.5 5.1875 C-5.995 4.795625 -6.49 4.40375 -7 4 C-5.02 4 -3.04 4 -1 4 C-0.67 2.68 -0.34 1.36 0 0 Z " fill="#E7E7ED" transform="translate(111,114)"/>
<path d="M0 0 C0.66 0.99 1.32 1.98 2 3 C4.56282742 3.72965366 4.56282742 3.72965366 7 4 C6.01 5.485 6.01 5.485 5 7 C4.34 7 3.68 7 3 7 C3.33 8.65 3.66 10.3 4 12 C3.236875 11.814375 2.47375 11.62875 1.6875 11.4375 C-1.08967375 10.77180827 -1.08967375 10.77180827 -4 12 C-3.938125 11.236875 -3.87625 10.47375 -3.8125 9.6875 C-3.74101915 6.95474688 -3.74101915 6.95474688 -5.5 5.1875 C-5.995 4.795625 -6.49 4.40375 -7 4 C-5.02 4 -3.04 4 -1 4 C-0.67 2.68 -0.34 1.36 0 0 Z " fill="#E7E7ED" transform="translate(48,114)"/>
<path d="M0 0 C2 2 2 2 2 5 C3.65 5 5.3 5 7 5 C6.34 5.66 5.68 6.32 5 7 C4.83318891 10.08347826 4.83318891 10.08347826 5 13 C4.2575 12.62875 3.515 12.2575 2.75 11.875 C0.05716353 10.70484137 0.05716353 10.70484137 -2.3125 11.875 C-3.1478125 12.431875 -3.1478125 12.431875 -4 13 C-3.67 11.02 -3.34 9.04 -3 7 C-3.99 6.67 -4.98 6.34 -6 6 C-6 5.67 -6 5.34 -6 5 C-4.35 5 -2.7 5 -1 5 C-0.67 3.35 -0.34 1.7 0 0 Z " fill="#E6E6EC" transform="translate(158,100)"/>
<path d="M0 0 C2 2 2 2 2 5 C3.65 5 5.3 5 7 5 C6.34 5.66 5.68 6.32 5 7 C4.83318891 10.08347826 4.83318891 10.08347826 5 13 C4.2575 12.62875 3.515 12.2575 2.75 11.875 C0.05716353 10.70484137 0.05716353 10.70484137 -2.3125 11.875 C-3.1478125 12.431875 -3.1478125 12.431875 -4 13 C-3.67 11.02 -3.34 9.04 -3 7 C-3.99 6.67 -4.98 6.34 -6 6 C-6 5.67 -6 5.34 -6 5 C-4.35 5 -2.7 5 -1 5 C-0.67 3.35 -0.34 1.7 0 0 Z " fill="#E6E6EC" transform="translate(95,100)"/>
<path d="M0 0 C2 2 2 2 2 5 C3.65 5 5.3 5 7 5 C6.34 5.66 5.68 6.32 5 7 C4.83318891 10.08347826 4.83318891 10.08347826 5 13 C4.2575 12.62875 3.515 12.2575 2.75 11.875 C0.05716353 10.70484137 0.05716353 10.70484137 -2.3125 11.875 C-3.1478125 12.431875 -3.1478125 12.431875 -4 13 C-3.67 11.02 -3.34 9.04 -3 7 C-3.99 6.67 -4.98 6.34 -6 6 C-6 5.67 -6 5.34 -6 5 C-4.35 5 -2.7 5 -1 5 C-0.67 3.35 -0.34 1.7 0 0 Z " fill="#E6E6ED" transform="translate(32,100)"/>
<path d="M0 0 C0.66 0.33 1.32 0.66 2 1 C2 1.99 2 2.98 2 4 C3.65 4 5.3 4 7 4 C7 4.66 7 5.32 7 6 C6.01 6.495 6.01 6.495 5 7 C5 8.65 5 10.3 5 12 C4.236875 11.814375 3.47375 11.62875 2.6875 11.4375 C-0.08967375 10.77180827 -0.08967375 10.77180827 -3 12 C-2.67 10.35 -2.34 8.7 -2 7 C-3.32 6.34 -4.64 5.68 -6 5 C-6 4.67 -6 4.34 -6 4 C-4.35 4 -2.7 4 -1 4 C-0.67 2.68 -0.34 1.36 0 0 Z " fill="#E8E7EE" transform="translate(142,114)"/>
<path d="M0 0 C0.66 1.32 1.32 2.64 2 4 C3.65 4 5.3 4 7 4 C7 4.66 7 5.32 7 6 C6.01 6.495 6.01 6.495 5 7 C5 8.98 5 10.96 5 13 C4.01 12.34 3.02 11.68 2 11 C-0.64632287 11.3121764 -0.64632287 11.3121764 -3 12 C-2.67 10.35 -2.34 8.7 -2 7 C-3.32 6.34 -4.64 5.68 -6 5 C-6 4.67 -6 4.34 -6 4 C-4.35 4 -2.7 4 -1 4 C-0.67 2.68 -0.34 1.36 0 0 Z " fill="#E7E7ED" transform="translate(79,114)"/>
<path d="M0 0 C0.66 1.32 1.32 2.64 2 4 C3.65 4 5.3 4 7 4 C7 4.66 7 5.32 7 6 C6.01 6.495 6.01 6.495 5 7 C5 8.98 5 10.96 5 13 C4.01 12.34 3.02 11.68 2 11 C-0.64632287 11.3121764 -0.64632287 11.3121764 -3 12 C-2.67 10.35 -2.34 8.7 -2 7 C-3.32 6.34 -4.64 5.68 -6 5 C-6 4.67 -6 4.34 -6 4 C-4.35 4 -2.7 4 -1 4 C-0.67 2.68 -0.34 1.36 0 0 Z " fill="#E7E7ED" transform="translate(16,114)"/>
<path d="M0 0 C2 3 2 3 2 5 C3.65 5 5.3 5 7 5 C6.2265625 5.86625 6.2265625 5.86625 5.4375 6.75 C3.73494807 8.87827523 3.73494807 8.87827523 4.3125 11.25 C4.539375 11.8275 4.76625 12.405 5 13 C3.6078125 12.7215625 3.6078125 12.7215625 2.1875 12.4375 C-1.01343771 11.75876119 -1.01343771 11.75876119 -4 13 C-3.95875 12.236875 -3.9175 11.47375 -3.875 10.6875 C-3.77919176 7.77281584 -3.77919176 7.77281584 -6 5 C-4.35 5 -2.7 5 -1 5 C-0.67 3.35 -0.34 1.7 0 0 Z " fill="#E9E9EF" transform="translate(174,60)"/>
<path d="M0 0 C2 3 2 3 2 5 C3.65 5 5.3 5 7 5 C6.2265625 5.86625 6.2265625 5.86625 5.4375 6.75 C3.73494807 8.87827523 3.73494807 8.87827523 4.3125 11.25 C4.539375 11.8275 4.76625 12.405 5 13 C3.6078125 12.7215625 3.6078125 12.7215625 2.1875 12.4375 C-1.01343771 11.75876119 -1.01343771 11.75876119 -4 13 C-3.95875 12.236875 -3.9175 11.47375 -3.875 10.6875 C-3.77919176 7.77281584 -3.77919176 7.77281584 -6 5 C-4.35 5 -2.7 5 -1 5 C-0.67 3.35 -0.34 1.7 0 0 Z " fill="#E9E9EF" transform="translate(111,60)"/>
<path d="M0 0 C2 3 2 3 2 5 C3.65 5 5.3 5 7 5 C6.2265625 5.86625 6.2265625 5.86625 5.4375 6.75 C3.73494807 8.87827523 3.73494807 8.87827523 4.3125 11.25 C4.539375 11.8275 4.76625 12.405 5 13 C3.6078125 12.7215625 3.6078125 12.7215625 2.1875 12.4375 C-1.01343771 11.75876119 -1.01343771 11.75876119 -4 13 C-3.95875 12.236875 -3.9175 11.47375 -3.875 10.6875 C-3.77919176 7.77281584 -3.77919176 7.77281584 -6 5 C-4.35 5 -2.7 5 -1 5 C-0.67 3.35 -0.34 1.7 0 0 Z " fill="#E9E9EF" transform="translate(48,60)"/>
<path d="M0 0 C0.66 0 1.32 0 2 0 C2.33 0.99 2.66 1.98 3 3 C4.65 3.33 6.3 3.66 8 4 C7.505 4.391875 7.01 4.78375 6.5 5.1875 C4.54406857 7.55091715 4.75792027 9.01435003 5 12 C4.05125 11.814375 3.1025 11.62875 2.125 11.4375 C-0.89868793 10.71313368 -0.89868793 10.71313368 -3 12 C-2.938125 11.236875 -2.87625 10.47375 -2.8125 9.6875 C-2.74101915 6.95474688 -2.74101915 6.95474688 -4.5 5.1875 C-4.995 4.795625 -5.49 4.40375 -6 4 C-4.35 3.67 -2.7 3.34 -1 3 C-0.67 2.01 -0.34 1.02 0 0 Z " fill="#EBEBF0" transform="translate(126,74)"/>
<path d="M0 0 C0.66 0 1.32 0 2 0 C2.33 0.99 2.66 1.98 3 3 C4.65 3.33 6.3 3.66 8 4 C7.505 4.391875 7.01 4.78375 6.5 5.1875 C4.54406857 7.55091715 4.75792027 9.01435003 5 12 C4.05125 11.814375 3.1025 11.62875 2.125 11.4375 C-0.89868793 10.71313368 -0.89868793 10.71313368 -3 12 C-2.938125 11.236875 -2.87625 10.47375 -2.8125 9.6875 C-2.74101915 6.95474688 -2.74101915 6.95474688 -4.5 5.1875 C-4.995 4.795625 -5.49 4.40375 -6 4 C-4.35 3.67 -2.7 3.34 -1 3 C-0.67 2.01 -0.34 1.02 0 0 Z " fill="#EBEBF0" transform="translate(63,74)"/>
<path d="M0 0 C2 3 2 3 2 5 C3.65 5 5.3 5 7 5 C6.484375 5.391875 5.96875 5.78375 5.4375 6.1875 C4.7259375 7.0846875 4.7259375 7.0846875 4 8 C4.23043864 10.65466049 4.23043864 10.65466049 5 13 C3.6078125 12.7215625 3.6078125 12.7215625 2.1875 12.4375 C-1.01343771 11.75876119 -1.01343771 11.75876119 -4 13 C-3.95875 12.236875 -3.9175 11.47375 -3.875 10.6875 C-3.77919176 7.77281584 -3.77919176 7.77281584 -6 5 C-4.35 5 -2.7 5 -1 5 C-0.67 3.35 -0.34 1.7 0 0 Z " fill="#EAEAEF" transform="translate(79,33)"/>
<path d="M0 0 C2 3 2 3 2 5 C3.65 5 5.3 5 7 5 C6.484375 5.391875 5.96875 5.78375 5.4375 6.1875 C4.7259375 7.0846875 4.7259375 7.0846875 4 8 C4.23043864 10.65466049 4.23043864 10.65466049 5 13 C3.6078125 12.7215625 3.6078125 12.7215625 2.1875 12.4375 C-1.01343771 11.75876119 -1.01343771 11.75876119 -4 13 C-3.95875 12.236875 -3.9175 11.47375 -3.875 10.6875 C-3.77919176 7.77281584 -3.77919176 7.77281584 -6 5 C-4.35 5 -2.7 5 -1 5 C-0.67 3.35 -0.34 1.7 0 0 Z " fill="#EFEFF3" transform="translate(142,6)"/>
<path d="M0 0 C0.66 0.33 1.32 0.66 2 1 C2 1.99 2 2.98 2 4 C3.65 4 5.3 4 7 4 C6.01 5.485 6.01 5.485 5 7 C4.83286431 9.62531524 4.83286431 9.62531524 5 12 C4.071875 11.835 3.14375 11.67 2.1875 11.5 C-0.95621353 10.92251612 -0.95621353 10.92251612 -4 11 C-3.773125 10.401875 -3.54625 9.80375 -3.3125 9.1875 C-3.209375 8.465625 -3.10625 7.74375 -3 7 C-4.35444301 5.22809091 -4.35444301 5.22809091 -6 4 C-4.35 4 -2.7 4 -1 4 C-0.67 2.68 -0.34 1.36 0 0 Z " fill="#EBEBF0" transform="translate(173,34)"/>
<path d="M0 0 C0.66 0.33 1.32 0.66 2 1 C2 1.99 2 2.98 2 4 C3.65 4 5.3 4 7 4 C6.01 5.485 6.01 5.485 5 7 C4.83286431 9.62531524 4.83286431 9.62531524 5 12 C4.071875 11.835 3.14375 11.67 2.1875 11.5 C-0.95621353 10.92251612 -0.95621353 10.92251612 -4 11 C-3.773125 10.401875 -3.54625 9.80375 -3.3125 9.1875 C-3.209375 8.465625 -3.10625 7.74375 -3 7 C-4.35444301 5.22809091 -4.35444301 5.22809091 -6 4 C-4.35 4 -2.7 4 -1 4 C-0.67 2.68 -0.34 1.36 0 0 Z " fill="#EBEBF0" transform="translate(110,34)"/>
<path d="M0 0 C0.66 0.33 1.32 0.66 2 1 C2 1.99 2 2.98 2 4 C3.65 4 5.3 4 7 4 C6.01 5.485 6.01 5.485 5 7 C4.83286431 9.62531524 4.83286431 9.62531524 5 12 C4.071875 11.835 3.14375 11.67 2.1875 11.5 C-0.95621353 10.92251612 -0.95621353 10.92251612 -4 11 C-3.773125 10.401875 -3.54625 9.80375 -3.3125 9.1875 C-3.209375 8.465625 -3.10625 7.74375 -3 7 C-4.35444301 5.22809091 -4.35444301 5.22809091 -6 4 C-4.35 4 -2.7 4 -1 4 C-0.67 2.68 -0.34 1.36 0 0 Z " fill="#EBEBF0" transform="translate(47,34)"/>
<path d="M0 0 C0.66 0.33 1.32 0.66 2 1 C2 1.99 2 2.98 2 4 C3.65 4 5.3 4 7 4 C6.01 5.485 6.01 5.485 5 7 C4.83286431 9.62531524 4.83286431 9.62531524 5 12 C4.071875 11.835 3.14375 11.67 2.1875 11.5 C-0.95621353 10.92251612 -0.95621353 10.92251612 -4 11 C-3.773125 10.401875 -3.54625 9.80375 -3.3125 9.1875 C-3.209375 8.465625 -3.10625 7.74375 -3 7 C-4.35444301 5.22809091 -4.35444301 5.22809091 -6 4 C-4.35 4 -2.7 4 -1 4 C-0.67 2.68 -0.34 1.36 0 0 Z " fill="#ECEBF0" transform="translate(110,7)"/>
<path d="M0 0 C0.4125 0.45375 0.825 0.9075 1.25 1.375 C3.06408095 3.05950374 4.75285627 3.99265971 7 5 C6.690625 5.598125 6.38125 6.19625 6.0625 6.8125 C4.89790296 9.08956772 4.89790296 9.08956772 4 12 C3.21625 11.814375 2.4325 11.62875 1.625 11.4375 C-0.97089775 10.74037734 -0.97089775 10.74037734 -3 12 C-2.95875 11.236875 -2.9175 10.47375 -2.875 9.6875 C-2.77919176 6.77281584 -2.77919176 6.77281584 -5 4 C-3.68 4 -2.36 4 -1 4 C-0.67 2.68 -0.34 1.36 0 0 Z " fill="#ECECF1" transform="translate(126,101)"/>
<path d="M0 0 C0.4125 0.45375 0.825 0.9075 1.25 1.375 C3.06408095 3.05950374 4.75285627 3.99265971 7 5 C6.690625 5.598125 6.38125 6.19625 6.0625 6.8125 C4.89790296 9.08956772 4.89790296 9.08956772 4 12 C3.21625 11.814375 2.4325 11.62875 1.625 11.4375 C-0.97089775 10.74037734 -0.97089775 10.74037734 -3 12 C-2.95875 11.236875 -2.9175 10.47375 -2.875 9.6875 C-2.77919176 6.77281584 -2.77919176 6.77281584 -5 4 C-3.68 4 -2.36 4 -1 4 C-0.67 2.68 -0.34 1.36 0 0 Z " fill="#ECECF1" transform="translate(63,101)"/>
<path d="M0 0 C0.66 0.33 1.32 0.66 2 1 C2 1.99 2 2.98 2 4 C3.65 4 5.3 4 7 4 C6.67 4.66 6.34 5.32 6 6 C5.34 6 4.68 6 4 6 C4.33 7.98 4.66 9.96 5 12 C4.071875 11.835 3.14375 11.67 2.1875 11.5 C-0.95621353 10.92251612 -0.95621353 10.92251612 -4 11 C-3.773125 10.401875 -3.54625 9.80375 -3.3125 9.1875 C-3.209375 8.465625 -3.10625 7.74375 -3 7 C-4.35444301 5.22809091 -4.35444301 5.22809091 -6 4 C-4.35 4 -2.7 4 -1 4 C-0.67 2.68 -0.34 1.36 0 0 Z " fill="#EDECF1" transform="translate(79,61)"/>
<path d="M0 0 C0.66 0.33 1.32 0.66 2 1 C2 1.99 2 2.98 2 4 C3.65 4 5.3 4 7 4 C6.67 4.66 6.34 5.32 6 6 C5.34 6 4.68 6 4 6 C4.33 7.98 4.66 9.96 5 12 C4.071875 11.835 3.14375 11.67 2.1875 11.5 C-0.95621353 10.92251612 -0.95621353 10.92251612 -4 11 C-3.773125 10.401875 -3.54625 9.80375 -3.3125 9.1875 C-3.209375 8.465625 -3.10625 7.74375 -3 7 C-4.35444301 5.22809091 -4.35444301 5.22809091 -6 4 C-4.35 4 -2.7 4 -1 4 C-0.67 2.68 -0.34 1.36 0 0 Z " fill="#ECECF1" transform="translate(142,61)"/>
<path d="M0 0 C2 3 2 3 2 5 C3.65 5 5.3 5 7 5 C6.484375 5.391875 5.96875 5.78375 5.4375 6.1875 C4.7259375 7.0846875 4.7259375 7.0846875 4 8 C4.23043864 10.65466049 4.23043864 10.65466049 5 13 C3.6078125 12.7215625 3.6078125 12.7215625 2.1875 12.4375 C-1.01343771 11.75876119 -1.01343771 11.75876119 -4 13 C-3.95875 12.236875 -3.9175 11.47375 -3.875 10.6875 C-3.77919176 7.77281584 -3.77919176 7.77281584 -6 5 C-4.35 5 -2.7 5 -1 5 C-0.67 3.35 -0.34 1.7 0 0 Z " fill="#EFEFF3" transform="translate(142,33)"/>
<path d="M0 0 C2.31 0.66 4.62 1.32 7 2 C6.67 4.64 6.34 7.28 6 10 C5.071875 9.835 4.14375 9.67 3.1875 9.5 C0.04378647 8.92251612 0.04378647 8.92251612 -3 9 C-2.773125 8.401875 -2.54625 7.80375 -2.3125 7.1875 C-2.209375 6.465625 -2.10625 5.74375 -2 5 C-3.35444301 3.22809091 -3.35444301 3.22809091 -5 2 C-3.35 2 -1.7 2 0 2 C0 1.34 0 0.68 0 0 Z " fill="#EBEBF0" transform="translate(172,9)"/>
<path d="M0 0 C0.66 0 1.32 0 2 0 C2 0.99 2 1.98 2 3 C3.65 3 5.3 3 7 3 C6.67 3.66 6.34 4.32 6 5 C5.34 5 4.68 5 4 5 C4.33 6.98 4.66 8.96 5 11 C4.071875 10.835 3.14375 10.67 2.1875 10.5 C-0.95621353 9.92251612 -0.95621353 9.92251612 -4 10 C-3.52449439 8.51965236 -3.04448784 7.04074979 -2.5625 5.5625 C-2.29566406 4.73878906 -2.02882813 3.91507812 -1.75390625 3.06640625 C-1 1 -1 1 0 0 Z " fill="#F0F0F4" transform="translate(16,62)"/>
<path d="M0 0 C0.66 0.99 1.32 1.98 2 3 C1.67 3.66 1.34 4.32 1 5 C0.34 5 -0.32 5 -1 5 C-0.67 3.35 -0.34 1.7 0 0 Z M-6 5 C-4.35 5 -2.7 5 -1 5 C-1.66 6.32 -2.32 7.64 -3 9 C-3.99 7.68 -4.98 6.36 -6 5 Z " fill="#DFDEE7" transform="translate(142,6)"/>
<path d="M0 0 C0.66 0.99 1.32 1.98 2 3 C1.67 3.66 1.34 4.32 1 5 C0.34 5 -0.32 5 -1 5 C-0.67 3.35 -0.34 1.7 0 0 Z M-6 5 C-4.35 5 -2.7 5 -1 5 C-1.66 6.32 -2.32 7.64 -3 9 C-3.99 7.68 -4.98 6.36 -6 5 Z " fill="#E6E6EC" transform="translate(142,33)"/>
</svg>
