<?xml version="1.0" encoding="UTF-8"?>
<svg version="1.1" xmlns="http://www.w3.org/2000/svg" width="250" height="250">
<path d="M0 0 C0.74223816 0.00304138 1.48447632 0.00608276 2.24920654 0.00921631 C13.94944381 0.07994395 25.04739853 0.85942068 36.25 4.4375 C36.93610352 4.65180664 37.62220703 4.86611328 38.32910156 5.08691406 C58.04987931 11.43266315 74.19618239 22.28162941 89.25 36.4375 C89.84039062 36.9634375 90.43078125 37.489375 91.0390625 38.03125 C104.31673202 50.36500936 113.84777506 67.55821967 119.625 84.5625 C119.8516333 85.22934814 120.0782666 85.89619629 120.31176758 86.58325195 C124.37204752 99.40237573 125.80410905 111.84120061 125.6875 125.1875 C125.68293793 126.30085724 125.68293793 126.30085724 125.67828369 127.43670654 C125.60755605 139.13694381 124.82807932 150.23489853 121.25 161.4375 C121.03569336 162.12360352 120.82138672 162.80970703 120.60058594 163.51660156 C114.25483685 183.23737931 103.40587059 199.38368239 89.25 214.4375 C88.7240625 215.02789062 88.198125 215.61828125 87.65625 216.2265625 C75.32249064 229.50423202 58.12928033 239.03527506 41.125 244.8125 C40.45815186 245.0391333 39.79130371 245.2657666 39.10424805 245.49926758 C26.28512427 249.55954752 13.84629939 250.99160905 0.5 250.875 C-0.24223816 250.87195862 -0.98447632 250.86891724 -1.74920654 250.86578369 C-13.44944381 250.79505605 -24.54739853 250.01557932 -35.75 246.4375 C-36.43610352 246.22319336 -37.12220703 246.00888672 -37.82910156 245.78808594 C-57.54987931 239.44233685 -73.69618239 228.59337059 -88.75 214.4375 C-89.63558594 213.64859375 -89.63558594 213.64859375 -90.5390625 212.84375 C-103.81673202 200.50999064 -113.34777506 183.31678033 -119.125 166.3125 C-119.3516333 165.64565186 -119.5782666 164.97880371 -119.81176758 164.29174805 C-123.87204752 151.47262427 -125.30410905 139.03379939 -125.1875 125.6875 C-125.18445862 124.94526184 -125.18141724 124.20302368 -125.17828369 123.43829346 C-125.10755605 111.73805619 -124.32807932 100.64010147 -120.75 89.4375 C-120.53569336 88.75139648 -120.32138672 88.06529297 -120.10058594 87.35839844 C-113.75483685 67.63762069 -102.90587059 51.49131761 -88.75 36.4375 C-88.2240625 35.84710938 -87.698125 35.25671875 -87.15625 34.6484375 C-74.82249064 21.37076798 -57.62928033 11.83972494 -40.625 6.0625 C-39.95815186 5.8358667 -39.29130371 5.6092334 -38.60424805 5.37573242 C-25.78512427 1.31545248 -13.34629939 -0.11660905 0 0 Z " fill="#FEFEFE" transform="translate(124.75,-0.4375)"/>
<path d="M0 0 C78.54 0 157.08 0 238 0 C235.97587438 6.74708541 234.15689886 12.3316954 230.875 18.375 C230.2862207 19.46953491 230.2862207 19.46953491 229.68554688 20.58618164 C223.84936714 31.1776378 216.26609213 40.2095662 208 49 C207.21109375 49.88558594 207.21109375 49.88558594 206.40625 50.7890625 C194.07249064 64.06673202 176.87928033 73.59777506 159.875 79.375 C159.20815186 79.6016333 158.54130371 79.8282666 157.85424805 80.06176758 C145.03512427 84.12204752 132.59629939 85.55410905 119.25 85.4375 C118.50776184 85.43445862 117.76552368 85.43141724 117.00079346 85.42828369 C105.30055619 85.35755605 94.20260147 84.57807932 83 81 C82.31389648 80.78569336 81.62779297 80.57138672 80.92089844 80.35058594 C61.20012069 74.00483685 45.05381761 63.15587059 30 49 C29.40960938 48.4740625 28.81921875 47.948125 28.2109375 47.40625 C19.40946556 39.23047512 12.64054627 28.7078842 7 18.1875 C6.45786865 17.18517334 6.45786865 17.18517334 5.90478516 16.16259766 C3.12279165 10.77405167 1.80787681 6.02625603 0 0 Z " fill="#1EB43A" transform="translate(6,165)"/>
<path d="M0 0 C0.74223816 0.00304138 1.48447632 0.00608276 2.24920654 0.00921631 C13.94944381 0.07994395 25.04739853 0.85942068 36.25 4.4375 C36.93610352 4.65180664 37.62220703 4.86611328 38.32910156 5.08691406 C58.04987931 11.43266315 74.19618239 22.28162941 89.25 36.4375 C89.84039062 36.9634375 90.43078125 37.489375 91.0390625 38.03125 C99.84053444 46.20702488 106.60945373 56.7296158 112.25 67.25 C112.6114209 67.91821777 112.9728418 68.58643555 113.34521484 69.27490234 C116.12720835 74.66344833 117.44212319 79.41124397 119.25 85.4375 C40.71 85.4375 -37.83 85.4375 -118.75 85.4375 C-116.72587438 78.69041459 -114.90689886 73.1058046 -111.625 67.0625 C-111.23248047 66.33281006 -110.83996094 65.60312012 -110.43554688 64.85131836 C-104.59936714 54.2598622 -97.01609213 45.2279338 -88.75 36.4375 C-88.2240625 35.84710938 -87.698125 35.25671875 -87.15625 34.6484375 C-74.82249064 21.37076798 -57.62928033 11.83972494 -40.625 6.0625 C-39.95815186 5.8358667 -39.29130371 5.6092334 -38.60424805 5.37573242 C-25.78512427 1.31545248 -13.34629939 -0.11660905 0 0 Z " fill="#0199B5" transform="translate(124.75,-0.4375)"/>
<path d="M0 0 C78.54 0 157.08 0 238 0 C237.67 1.65 237.34 3.3 237 5 C159.12 5 81.24 5 1 5 C0.67 3.35 0.34 1.7 0 0 Z " fill="#CC1528" transform="translate(6,165)"/>
<path d="M0 0 C77.88 0 155.76 0 236 0 C236.33 1.65 236.66 3.3 237 5 C158.46 5 79.92 5 -1 5 C-0.67 3.35 -0.34 1.7 0 0 Z " fill="#CC1429" transform="translate(7,80)"/>
<path d="M0 0 C0.33 0.66 0.66 1.32 1 2 C0.34 2 -0.32 2 -1 2 C-1.268125 2.680625 -1.53625 3.36125 -1.8125 4.0625 C-3 7 -3 7 -4.625 10.0625 C-7.56845992 17.02114114 -6.68028295 24.80019578 -4.375 31.8125 C-0.13530491 41.98776821 6.06444826 45.61099413 16 50 C16 50.33 16 50.66 16 51 C7.40930583 52.02632187 1.16501135 49.72951384 -6 45 C-12.53010469 39.51330522 -16.41202417 32.35191636 -17.34375 23.87109375 C-17.50768756 18.3040476 -17.51450674 14.52885625 -14 10 C-11.71745382 8.05502606 -9.29403555 6.36757673 -6.8125 4.6875 C-6.15830078 4.23310547 -5.50410156 3.77871094 -4.83007812 3.31054688 C-3.22608105 2.19828613 -1.61384348 1.09792522 0 0 Z " fill="#F5FBFC" transform="translate(57,19)"/>
<path d="M0 0 C0.66 0 1.32 0 2 0 C2 0.99 2 1.98 2 3 C3.32 3.33 4.64 3.66 6 4 C5.34 5.65 4.68 7.3 4 9 C2.02 9 0.04 9 -2 9 C-2.66 7.02 -3.32 5.04 -4 3 C-2.68 3 -1.36 3 0 3 C0 2.01 0 1.02 0 0 Z " fill="#D9EFF4" transform="translate(183,59)"/>
<path d="M0 0 C0.66 0 1.32 0 2 0 C2 0.99 2 1.98 2 3 C3.32 3.33 4.64 3.66 6 4 C5.34 5.65 4.68 7.3 4 9 C2.02 9 0.04 9 -2 9 C-2.66 7.02 -3.32 5.04 -4 3 C-2.68 3 -1.36 3 0 3 C0 2.01 0 1.02 0 0 Z " fill="#D9EFF4" transform="translate(159,59)"/>
<path d="M0 0 C0.66 0 1.32 0 2 0 C2 0.99 2 1.98 2 3 C3.32 3.33 4.64 3.66 6 4 C5.34 5.65 4.68 7.3 4 9 C2.02 9 0.04 9 -2 9 C-2.66 7.02 -3.32 5.04 -4 3 C-2.68 3 -1.36 3 0 3 C0 2.01 0 1.02 0 0 Z " fill="#D9F0F4" transform="translate(135,59)"/>
<path d="M0 0 C0.66 0 1.32 0 2 0 C2 0.99 2 1.98 2 3 C3.32 3.33 4.64 3.66 6 4 C5.34 5.65 4.68 7.3 4 9 C2.02 9 0.04 9 -2 9 C-2.66 7.02 -3.32 5.04 -4 3 C-2.68 3 -1.36 3 0 3 C0 2.01 0 1.02 0 0 Z " fill="#D9EFF4" transform="translate(111,59)"/>
<path d="M0 0 C0.66 0 1.32 0 2 0 C2 0.99 2 1.98 2 3 C3.32 3.33 4.64 3.66 6 4 C5.34 5.65 4.68 7.3 4 9 C2.02 9 0.04 9 -2 9 C-2.66 7.02 -3.32 5.04 -4 3 C-2.68 3 -1.36 3 0 3 C0 2.01 0 1.02 0 0 Z " fill="#D9EFF4" transform="translate(87,59)"/>
<path d="M0 0 C0.66 0.33 1.32 0.66 2 1 C2 1.66 2 2.32 2 3 C3.32 3.33 4.64 3.66 6 4 C5.34 5.65 4.68 7.3 4 9 C2.02 9 0.04 9 -2 9 C-2.66 7.02 -3.32 5.04 -4 3 C-2.68 3 -1.36 3 0 3 C0 2.01 0 1.02 0 0 Z " fill="#D9EFF4" transform="translate(159,11)"/>
<path d="M0 0 C0.66 0.33 1.32 0.66 2 1 C2 1.66 2 2.32 2 3 C3.32 3.33 4.64 3.66 6 4 C5.34 5.65 4.68 7.3 4 9 C2.02 9 0.04 9 -2 9 C-2.66 7.02 -3.32 5.04 -4 3 C-2.68 3 -1.36 3 0 3 C0 2.01 0 1.02 0 0 Z " fill="#D9EFF4" transform="translate(135,11)"/>
<path d="M0 0 C0.33 0.99 0.66 1.98 1 3 C3.01508358 3.73323796 3.01508358 3.73323796 5 4 C4.34 5.65 3.68 7.3 3 9 C1.02 9 -0.96 9 -3 9 C-2.67 7.68 -2.34 6.36 -2 5 C-2.99 4.67 -3.98 4.34 -5 4 C-4.0409375 3.8453125 -4.0409375 3.8453125 -3.0625 3.6875 C-2.381875 3.460625 -1.70125 3.23375 -1 3 C-0.67 2.01 -0.34 1.02 0 0 Z " fill="#E1F3F6" transform="translate(184,35)"/>
<path d="M0 0 C0.33 0.99 0.66 1.98 1 3 C3.01508358 3.73323796 3.01508358 3.73323796 5 4 C4.34 5.65 3.68 7.3 3 9 C1.02 9 -0.96 9 -3 9 C-2.67 7.68 -2.34 6.36 -2 5 C-2.99 4.67 -3.98 4.34 -5 4 C-4.0409375 3.8453125 -4.0409375 3.8453125 -3.0625 3.6875 C-2.381875 3.460625 -1.70125 3.23375 -1 3 C-0.67 2.01 -0.34 1.02 0 0 Z " fill="#E1F3F6" transform="translate(160,35)"/>
<path d="M0 0 C0.33 0.99 0.66 1.98 1 3 C3.01508358 3.73323796 3.01508358 3.73323796 5 4 C4.34 5.65 3.68 7.3 3 9 C1.02 9 -0.96 9 -3 9 C-2.67 7.68 -2.34 6.36 -2 5 C-2.99 4.67 -3.98 4.34 -5 4 C-4.0409375 3.8453125 -4.0409375 3.8453125 -3.0625 3.6875 C-2.381875 3.460625 -1.70125 3.23375 -1 3 C-0.67 2.01 -0.34 1.02 0 0 Z " fill="#E1F3F6" transform="translate(136,35)"/>
<path d="M0 0 C0.33 0.99 0.66 1.98 1 3 C3.01508358 3.73323796 3.01508358 3.73323796 5 4 C4.34 5.65 3.68 7.3 3 9 C1.02 9 -0.96 9 -3 9 C-2.67 7.68 -2.34 6.36 -2 5 C-2.99 4.67 -3.98 4.34 -5 4 C-4.0409375 3.8453125 -4.0409375 3.8453125 -3.0625 3.6875 C-2.381875 3.460625 -1.70125 3.23375 -1 3 C-0.67 2.01 -0.34 1.02 0 0 Z " fill="#E1F3F6" transform="translate(112,35)"/>
<path d="M0 0 C2.875 -0.125 2.875 -0.125 6 0 C8 2 8 2 8 6 C6.02 6 4.04 6 2 6 C1.34 4.02 0.68 2.04 0 0 Z " fill="#E3F3F7" transform="translate(179,14)"/>
</svg>
